<svg width="2000" height="436" viewBox="0 0 2000 436" fill="none" xmlns="http://www.w3.org/2000/svg">
<path d="M0 428.914V387.159H23.1364C34.7731 387.159 57.9095 384.694 57.9095 356.903V106.51C57.9095 91.4504 56.8143 55.4453 27.7911 55.4453H1.09522L31.3505 2.19043H1814.91V55.4453H174.002C158.943 55.4453 139.229 58.8678 139.229 89.1232V167.979C142.652 177.151 156.616 180.71 163.598 180.71C170.58 180.71 194.948 179.478 194.948 141.283H229.584V269.97H194.811C194.811 258.334 181.943 238.894 164.693 237.525C150.729 236.43 139.229 241.084 139.229 259.703V357.04C139.229 367.445 151.961 387.295 182.08 387.295H202.889V429.051L0 428.914Z" fill="black"/>
<path d="M1923.88 55.0346C1964.54 55.0346 1997.4 42.7134 1997.4 27.5173C1997.4 12.3212 1964.54 0 1923.88 0C1883.36 0 1850.5 12.3212 1850.5 27.5173C1850.5 42.7134 1883.36 55.0346 1923.88 55.0346Z" fill="black"/>
<path d="M1370.05 100.746C1367.1 100.746 1364.49 100.762 1362.31 100.762C1344.93 100.762 1287.01 100.762 1260.18 130.883C1233.62 161.139 1238.14 190.023 1238.14 201.66H1314.12C1314.12 201.66 1319.32 162.232 1329.86 151.828C1340.27 141.423 1368.06 129.786 1389.55 148.405C1397.49 155.25 1400.64 164.012 1400.64 174.005V223.838C1400.64 228.493 1395.99 235.474 1390.1 235.474C1390.1 235.474 1284.55 237.804 1266.07 251.631C1247.59 265.595 1231.3 274.766 1231.3 325.83C1231.3 376.894 1244.03 396.609 1259.09 407.013C1274.15 417.418 1281.13 429.052 1349.58 429.052H1511.94V395.239C1497.98 395.239 1481.83 383.74 1481.83 367.449V193.582C1481.83 166.886 1480.59 139.095 1452.8 119.244C1428.49 101.994 1390.75 100.783 1370.05 100.749V100.746ZM1379.01 267.781C1397.08 267.781 1400.5 282.84 1400.5 292.834V387.295H1400.64C1400.64 390.17 1395.99 394.279 1392.43 394.279H1352.45C1323.98 394.279 1315.9 369.909 1315.9 354.849V310.22C1315.9 266.822 1361.08 267.781 1379.01 267.781Z" fill="black"/>
<path d="M429.052 106.922C364.16 106.922 343.213 116.093 324.731 131.289C306.113 146.348 299.131 177.699 299.131 200.836V331.986C299.131 366.759 306.113 391.128 328.154 413.169C350.195 435.074 417.415 435.073 431.379 435.073C445.343 435.073 491.616 436.308 525.293 411.939C558.971 387.297 551.85 331.712 551.85 331.712H470.805V363.063C470.805 375.795 468.477 402.493 430.282 402.493C392.086 402.493 380.449 376.892 380.449 358.411V292.422C380.449 286.535 385.106 278.458 393.183 278.458H551.989V193.852C551.989 155.519 543.913 143.885 527.621 127.731C511.33 111.576 454.515 106.922 429.052 106.922ZM426.724 141.418C467.384 141.418 470.805 171.677 470.805 187.831V229.585C470.77 233.277 469.287 236.809 466.676 239.42C464.065 242.031 460.534 243.513 456.841 243.549H394.278C387.433 243.549 380.314 237.8 380.314 230.818V187.831C380.314 169.212 386.064 141.418 426.724 141.418Z" fill="black"/>
<path d="M1656.79 115.819C1656.79 125.129 1668.42 134.438 1675.41 136.628C1683.62 130.878 1726.47 106.51 1760.01 106.51C1793.55 106.51 1811.08 123.896 1811.08 150.592V278.185H1729.89V179.479C1729.89 166.747 1726.47 157.574 1714.83 156.342C1703.2 155.11 1673.08 179.478 1665 191.115V367.308C1665 383.599 1681.16 395.099 1695.12 395.099V428.777H1553.7V394.004C1567.66 394.004 1582.59 389.349 1583.82 368.403V172.36C1583.82 166.61 1574.51 150.455 1553.7 150.455V115.545H1656.79V115.819Z" fill="black"/>
<path d="M716.408 115.819C716.408 125.129 727.908 134.438 734.89 136.628C743.104 130.878 785.954 106.51 819.495 106.51C853.173 106.51 870.559 123.896 870.559 150.592V278.185H789.376V179.479C789.376 166.747 785.954 157.574 774.317 156.342C762.681 155.11 732.562 179.478 724.485 191.115V367.308C724.485 383.599 740.776 395.099 754.603 395.099V428.777H613.184V394.004C627.148 394.004 642.207 389.349 643.302 368.403V172.36C643.302 166.61 633.993 150.455 613.184 150.455V115.545H716.408V115.819Z" fill="black"/>
<path d="M2000 115.819H1858.58V150.729C1879.39 150.729 1888.7 166.883 1888.7 172.633V368.677C1887.6 389.486 1872.41 394.278 1858.58 394.278V429.051H2000V395.236C1986.04 395.236 1969.88 383.736 1969.88 367.445V175.098C1969.88 161.134 1984.94 150.729 2000 150.729V115.819Z" fill="black"/>
<path d="M1029.37 115.819C1029.37 125.129 1040.87 134.438 1047.85 136.628C1056.06 130.878 1098.91 106.51 1132.45 106.51C1165.99 106.51 1183.52 123.896 1183.52 150.592V278.185H1102.33V179.479C1102.33 166.747 1098.91 157.574 1087.27 156.342C1075.64 155.11 1045.52 179.616 1037.44 191.252V367.445C1037.44 383.736 1053.73 395.236 1067.56 395.236V428.914H926.141V394.141C940.105 394.141 955.165 389.486 956.26 368.54V172.497C956.26 166.747 946.95 150.592 926.141 150.592V115.682L1029.37 115.819Z" fill="black"/>
</svg>
