<svg width="703" height="143" viewBox="0 0 703 143" fill="none" xmlns="http://www.w3.org/2000/svg">
<path d="M201.085 3.59843C203.039 3.41781 205.002 3.45926 206.965 3.4563C246.301 3.45334 285.639 3.45926 324.977 3.45334C324.989 15.9284 324.974 28.4035 324.983 40.8786C240.269 40.8726 155.558 40.8578 70.8441 40.8608C79.0256 28.4538 87.2011 16.0409 95.3856 3.631C119.382 3.63396 143.379 3.631 167.379 3.63397C167.408 13.2012 167.322 22.7685 167.42 32.3328C169.57 23.4851 175.119 15.5553 182.569 10.3497C188 6.51511 194.461 4.15808 201.085 3.59843Z" fill="black"/>
<path d="M519.938 3.73759C522.792 3.36449 525.676 3.47109 528.549 3.45628C570.152 3.45925 611.755 3.4474 653.356 3.46221C653.35 15.9343 653.353 28.4064 653.356 40.8785C597.72 40.8874 542.087 40.8667 486.451 40.8489C486.611 30.7842 490.996 20.8971 498.316 13.9978C504.179 8.38058 511.872 4.69994 519.938 3.73759Z" fill="black"/>
<path d="M330.958 3.63395C343.492 3.63395 356.027 3.63098 368.561 3.63395C368.561 16.0439 368.561 28.4538 368.561 40.8637C356.027 40.8608 343.489 40.8697 330.955 40.8578C330.958 28.4508 330.952 16.0409 330.958 3.63395Z" fill="black"/>
<path d="M448.454 40.8637C448.463 28.4508 448.433 16.0379 448.466 3.62802C460.994 3.64283 473.526 3.62802 486.054 3.63394C486.057 16.0439 486.054 28.4508 486.057 40.8608C473.523 40.8667 460.988 40.8637 448.454 40.8637Z" fill="black"/>
<path d="M676.766 5.08489C681.951 3.90933 687.639 5.57643 691.477 9.22745C695.199 12.8785 697.023 18.395 696.137 23.5443C695.335 28.2969 692.415 32.7444 688.11 35.0156C683.278 37.7635 677.044 37.7457 672.218 34.9949C667.735 32.6141 664.732 27.8853 664.107 22.8958C663.548 18.6881 664.818 14.3324 667.35 10.9508C669.624 7.92161 673.091 5.90215 676.766 5.08489ZM677.34 7.69953C673.139 8.59674 669.399 11.5371 667.785 15.5583C665.274 21.057 667.148 28.0955 672.008 31.6666C675.925 34.6306 681.465 35.2554 685.907 33.1146C689.887 31.3705 692.709 27.4915 693.455 23.2482C694.216 19.1027 692.857 14.6699 690.002 11.5904C686.819 8.26214 681.853 6.67499 677.34 7.69953Z" fill="black"/>
<path d="M673.082 12.4373C676.313 12.5261 679.582 12.2063 682.789 12.7215C685.14 13.0887 686.869 15.5435 686.449 17.8827C686.135 20.2575 683.861 21.9602 681.545 22.0667C682.934 22.5849 683.799 23.8375 684.625 24.9923C685.711 26.5735 686.686 28.2258 687.71 29.8485C686.561 29.8485 685.418 29.8485 684.278 29.8485C682.99 27.681 681.93 25.3299 680.219 23.4496C679.135 22.2178 677.352 22.4665 675.89 22.4487C675.887 24.9153 675.892 27.3849 675.887 29.8515C674.945 29.8485 674.012 29.8485 673.082 29.8485C673.079 24.0448 673.079 18.241 673.082 12.4373ZM675.89 14.7884C675.887 16.5443 675.887 18.3002 675.892 20.0562C677.719 20.0118 679.576 20.1953 681.388 19.8459C682.386 19.6772 683.313 18.9339 683.482 17.8975C683.775 16.6272 682.884 15.2888 681.628 15.0105C679.739 14.6433 677.799 14.8358 675.89 14.7884Z" fill="black"/>
<path d="M330.955 42.4627C343.492 43.1023 356.03 43.7389 368.564 44.4022C368.57 59.7496 368.567 75.0998 368.564 90.4472C368.481 92.588 368.774 94.7852 369.802 96.6921C371.632 100.299 375.573 102.691 379.621 102.629C397.479 102.635 415.34 102.632 433.199 102.632C435.194 102.582 437.205 102.756 439.189 102.49C442.807 101.945 446.044 99.443 447.504 96.091C448.226 94.5009 448.493 92.742 448.457 91.0068C448.454 76.8469 448.46 62.687 448.454 48.5241C460.991 49.1518 473.523 49.8092 486.057 50.4577C486.063 67.2707 486.054 84.0838 486.063 100.897C527.569 100.894 569.077 100.897 610.586 100.894C612.057 100.894 613.597 101.006 614.983 100.391C617.411 99.4222 619.105 96.8905 619.06 94.2699C619.063 91.6583 617.343 89.1532 614.903 88.2204C613.816 87.7526 612.62 87.7526 611.468 87.6845C583.939 85.9759 556.407 84.3088 528.874 82.6151C518.502 82.3071 508.111 78.7301 500.081 72.0795C493.498 66.6311 488.778 58.9264 487.138 50.5198C530.755 52.7199 574.369 54.9792 618 56.8329C627.479 57.4754 636.611 61.8963 643.063 68.8579C648.313 74.4543 651.831 81.6587 652.935 89.2538C653.527 93.0737 653.329 96.9468 653.344 100.796C653.243 110.218 649.42 119.507 642.936 126.33C635.947 133.803 625.862 138.284 615.617 138.319C572.228 138.331 528.836 138.316 485.444 138.328C485.42 128.245 485.468 118.166 485.42 108.086C483.608 117.553 477.988 126.214 470.052 131.692C463.665 136.19 455.818 138.52 448.013 138.325C422.938 138.322 397.864 138.322 372.792 138.322C369.233 138.301 365.647 138.47 362.126 137.848C353.012 136.397 344.573 131.34 338.903 124.076C335.118 119.27 332.545 113.52 331.506 107.494C329.593 117.322 323.626 126.256 315.312 131.825C310.716 134.935 305.431 137.025 299.944 137.869C297.116 138.34 294.246 138.349 291.389 138.322C237.086 138.322 182.785 138.322 128.482 138.322C128.476 107.737 128.479 77.1489 128.479 46.5638C183.665 50.1408 238.844 53.783 294.027 57.3777C302.49 57.3718 310.956 60.1434 317.654 65.3431C324.112 70.291 328.915 77.3976 330.958 85.283C330.952 71.0106 330.958 56.7352 330.955 42.4627ZM167.385 100.897C208.709 100.888 250.037 100.9 291.365 100.891C294.433 100.932 297.285 98.5309 297.794 95.5106C298.362 92.7035 296.817 89.6684 294.244 88.4366C292.722 87.6223 290.951 87.7674 289.287 87.6223C261.059 85.8486 232.825 84.1223 204.594 82.3634C196.572 81.3596 188.687 78.5791 182.113 73.8118C174.968 68.6772 169.519 61.0672 167.417 52.483C167.334 68.621 167.396 84.7589 167.385 100.897Z" fill="black"/>
<path d="M6.60324 138.319C27.5174 106.597 48.4286 74.8718 69.3399 43.1438C83.7574 43.9581 98.172 44.7931 112.59 45.637C92.7828 76.5389 72.9465 107.42 53.1338 138.319C37.6236 138.328 22.1134 138.325 6.60324 138.319Z" fill="black"/>
</svg>
