<svg width="924" height="122" viewBox="0 0 924 122" fill="none" xmlns="http://www.w3.org/2000/svg">
<path d="M789.071 48.4576V121.039H812.347V72.7144H897.062V121.039H920.322V48.5834L789.071 48.4576ZM809.754 24.9792H899.255C911.687 22.5081 920.932 11.5374 923.538 0.924418H785.474C788.054 11.5407 797.435 22.5081 809.754 24.9792ZM718.576 121.086C730.312 116.11 736.626 107.505 739.044 97.4349H634.646L634.713 0.984041L611.31 1.05029V121.086H718.576ZM437.283 24.6545H519.941C532.402 21.0341 542.866 11.5407 545.417 1.01717H414.112V71.9525H521.58V96.8453L437.283 96.9115C424.073 100.595 412.87 109.466 407.282 121.182L414.112 121.056H544.671V48.3681H437.283V24.6545ZM233.228 24.8831H322.7C335.148 22.4021 344.399 11.4413 346.993 0.81842H208.935C211.512 11.4413 220.899 22.4021 233.228 24.8831ZM233.228 72.3235H322.7C335.148 69.869 344.399 58.8983 346.993 48.2687H208.935C211.512 58.9016 220.899 69.869 233.228 72.3235ZM233.228 121.072H322.7C335.148 118.598 344.399 107.631 346.993 97.0142H208.935C211.512 107.634 220.899 118.598 233.228 121.072ZM0.461533 1.10991C3.15121 11.6003 12.2339 22.3226 24.6952 25.009H62.3573L64.2785 25.7675V120.804H87.7966V25.7675L89.9331 25.009H127.628C140.229 21.7628 149.116 11.6003 151.759 1.10991V0.878044H0.461533V1.10991Z" fill="black"/>
</svg>
