<svg width="210" height="64" viewBox="0 0 210 64" fill="none" xmlns="http://www.w3.org/2000/svg">
<path d="M85.6599 29.86C92.2829 31.47 94.9829 33.97 94.9829 38.49C94.9829 43.838 90.8969 47.294 84.5729 47.294C80.1029 47.294 75.9589 45.706 72.5909 42.699C72.5218 42.6373 72.4795 42.5509 72.4731 42.4584C72.4668 42.3659 72.4968 42.2746 72.5569 42.204L75.5329 38.664C75.5633 38.6278 75.6006 38.598 75.6426 38.5764C75.6846 38.5548 75.7305 38.5417 75.7776 38.538C75.8247 38.5343 75.872 38.54 75.9169 38.5547C75.9618 38.5695 76.0033 38.593 76.0389 38.624C78.9339 41.13 81.5219 42.198 84.6939 42.198C87.5509 42.198 89.3259 40.961 89.3259 38.973C89.3259 37.178 88.4479 36.175 83.2459 34.977C77.1359 33.499 73.5989 31.587 73.5989 26.182C73.5989 21.142 77.6989 17.622 83.5669 17.622C87.5569 17.622 90.9739 18.804 94.0069 21.237C94.1529 21.355 94.1829 21.567 94.0739 21.721L91.4189 25.461C91.3912 25.4994 91.3561 25.532 91.3157 25.5568C91.2753 25.5817 91.2304 25.5983 91.1836 25.6057C91.1367 25.6132 91.0889 25.6113 91.0428 25.6002C90.9967 25.5891 90.9532 25.569 90.9149 25.541C88.3669 23.641 85.9369 22.719 83.4849 22.719C80.9569 22.719 79.2569 23.934 79.2569 25.739C79.2569 27.649 80.2269 28.559 85.6609 29.857M109.29 24.5C106.55 24.5 104.302 25.58 102.447 27.79V25.3C102.447 25.2056 102.409 25.115 102.343 25.0483C102.276 24.9815 102.185 24.944 102.091 24.944H97.2249C97.1305 24.944 97.04 24.9815 96.9732 25.0483C96.9064 25.115 96.8689 25.2056 96.8689 25.3V52.97C96.8689 53.165 97.0289 53.325 97.2249 53.325H102.092C102.289 53.325 102.449 53.165 102.449 52.969V44.234C104.303 46.314 106.552 47.332 109.293 47.332C114.388 47.332 119.543 43.412 119.543 35.916C119.543 28.42 114.385 24.5 109.29 24.5ZM113.88 35.917C113.88 39.733 111.53 42.397 108.164 42.397C104.834 42.397 102.324 39.612 102.324 35.917C102.324 32.222 104.834 29.437 108.164 29.437C111.476 29.437 113.88 32.162 113.88 35.917ZM132.757 24.5C126.197 24.5 121.059 29.55 121.059 36C121.059 42.378 126.161 47.375 132.675 47.375C139.258 47.375 144.412 42.341 144.412 35.917C144.412 29.515 139.292 24.499 132.756 24.499M132.756 42.436C129.266 42.436 126.636 39.633 126.636 35.916C126.636 32.184 129.176 29.476 132.676 29.476C136.186 29.476 138.836 32.279 138.836 35.998C138.836 39.728 136.278 42.436 132.756 42.436ZM158.42 24.944C158.617 24.944 158.776 25.104 158.776 25.3V29.483C158.776 29.5297 158.767 29.576 158.749 29.6192C158.731 29.6623 158.705 29.7016 158.672 29.7347C158.639 29.7677 158.6 29.794 158.557 29.8119C158.514 29.8298 158.468 29.839 158.421 29.839H153.066V39.9C153.066 41.49 153.764 42.198 155.326 42.198C156.32 42.2033 157.3 41.9665 158.182 41.508C158.236 41.481 158.297 41.4683 158.358 41.4712C158.419 41.474 158.478 41.4923 158.529 41.5243C158.581 41.5564 158.624 41.6011 158.654 41.6542C158.683 41.7073 158.699 41.7671 158.699 41.828V45.81C158.699 45.937 158.629 46.057 158.519 46.12C157.154 46.893 155.706 47.253 153.959 47.253C149.666 47.253 147.489 45.036 147.489 40.661V29.84H145.149C145.102 29.8399 145.056 29.8306 145.013 29.8126C144.97 29.7946 144.931 29.7684 144.898 29.7353C144.865 29.7023 144.839 29.6631 144.822 29.6199C144.804 29.5768 144.795 29.5306 144.795 29.484V25.3C144.795 25.104 144.953 24.944 145.149 24.944H147.489V19.468C147.489 19.272 147.649 19.112 147.847 19.112H152.713C152.91 19.112 153.069 19.272 153.069 19.468V24.944H158.424M185.395 24.965C185.542 24.965 185.675 25.055 185.728 25.195L191.413 40.029L196.603 25.203C196.627 25.133 196.673 25.0724 196.733 25.0294C196.794 24.9864 196.866 24.9632 196.94 24.963H202.007C202.065 24.9629 202.122 24.9771 202.174 25.0043C202.225 25.0314 202.269 25.0708 202.301 25.1189C202.334 25.1669 202.354 25.2223 202.36 25.28C202.367 25.3377 202.359 25.3961 202.337 25.45L193.893 47.27C192.143 51.773 190.155 53.447 186.563 53.447C184.641 53.447 183.086 53.049 181.363 52.117C181.284 52.0742 181.224 52.0027 181.196 51.9172C181.167 51.8317 181.173 51.7386 181.211 51.657L182.861 48.037C182.881 47.9924 182.91 47.9524 182.946 47.9194C182.982 47.8864 183.025 47.8611 183.071 47.845C183.118 47.8301 183.167 47.8248 183.216 47.8294C183.265 47.834 183.313 47.8485 183.356 47.872C184.279 48.377 185.182 48.632 186.04 48.632C187.1 48.632 187.877 48.284 188.667 46.53L181.707 29.84H177.162V46.535C177.162 46.732 177.002 46.892 176.806 46.892H171.939C171.892 46.892 171.846 46.8828 171.802 46.8648C171.759 46.8469 171.72 46.8205 171.687 46.7874C171.654 46.7542 171.628 46.7149 171.61 46.6715C171.592 46.6282 171.583 46.5818 171.583 46.535V29.84H169.245C169.15 29.8392 169.06 29.8014 168.993 29.7346C168.927 29.6678 168.889 29.5774 168.888 29.483V25.28C168.888 25.083 169.048 24.923 169.244 24.923H171.582V23.893C171.582 19.107 173.958 16.575 178.454 16.575C180.301 16.575 181.534 16.87 182.499 17.155C182.651 17.202 182.752 17.341 182.752 17.497V21.597C182.753 21.6537 182.74 21.7097 182.714 21.7604C182.689 21.8111 182.652 21.855 182.606 21.8883C182.56 21.9216 182.507 21.9434 182.451 21.9519C182.395 21.9604 182.338 21.9553 182.284 21.937C181.371 21.633 180.556 21.431 179.542 21.431C177.842 21.431 177.082 22.314 177.082 24.293V24.965H185.394H185.395ZM166.263 24.944C166.459 24.944 166.619 25.104 166.619 25.3V46.534C166.619 46.73 166.459 46.89 166.262 46.89H161.395C161.3 46.89 161.21 46.8525 161.143 46.7858C161.076 46.7191 161.038 46.6285 161.038 46.534V25.3C161.038 25.104 161.198 24.944 161.394 24.944H166.261M163.854 15.276C164.78 15.276 165.667 15.6437 166.322 16.2982C166.976 16.9527 167.344 17.8404 167.344 18.766C167.344 19.6916 166.976 20.5793 166.322 21.2338C165.667 21.8883 164.78 22.256 163.854 22.256C162.928 22.256 162.041 21.8883 161.386 21.2338C160.732 20.5793 160.364 19.6916 160.364 18.766C160.364 17.8404 160.732 16.9527 161.386 16.2982C162.041 15.6437 162.928 15.276 163.854 15.276ZM206.492 31.77C206.042 31.7717 205.596 31.6843 205.179 31.5128C204.763 31.3413 204.385 31.0891 204.066 30.7707C203.748 30.4523 203.496 30.074 203.324 29.6577C203.153 29.2414 203.065 28.7953 203.067 28.345C203.067 27.8929 203.156 27.4452 203.329 27.0276C203.502 26.6099 203.756 26.2304 204.075 25.9108C204.395 25.5912 204.775 25.3376 205.192 25.1647C205.61 24.9918 206.058 24.9029 206.51 24.903C206.96 24.901 207.406 24.9882 207.823 25.1595C208.239 25.3308 208.617 25.5828 208.936 25.901C209.254 26.2193 209.506 26.5974 209.678 27.0136C209.849 27.4298 209.937 27.8758 209.935 28.326C209.935 28.7783 209.846 29.2261 209.673 29.644C209.5 30.0619 209.247 30.4417 208.927 30.7616C208.607 31.0815 208.228 31.3353 207.81 31.5085C207.392 31.6817 206.944 31.7699 206.492 31.77ZM206.51 25.244C204.756 25.244 203.428 26.639 203.428 28.346C203.428 30.053 204.746 31.429 206.492 31.429C208.246 31.429 209.575 30.035 209.575 28.327C209.575 26.62 208.255 25.244 206.51 25.244ZM207.27 28.679L208.238 30.035H207.421L206.551 28.791H205.801V30.035H205.116V26.44H206.72C207.554 26.44 208.104 26.868 208.104 27.587C208.104 28.177 207.764 28.537 207.269 28.677M206.689 27.057H205.799V28.193H206.689C207.135 28.193 207.399 27.975 207.399 27.623C207.399 27.253 207.135 27.057 206.689 27.057ZM31.4929 0.798004C14.1069 0.798004 0.0129395 15.088 0.0129395 32.475C0.0119395 48.812 12.4539 62 28.3799 64H34.6059C50.5319 62 62.9739 48.812 62.9739 32.474C62.9739 15.088 48.8779 0.798004 31.4929 0.798004ZM45.9299 46.204C45.7958 46.4242 45.6196 46.6158 45.4114 46.7679C45.2031 46.9199 44.9669 47.0293 44.7162 47.0899C44.4656 47.1504 44.2055 47.161 43.9508 47.1208C43.6961 47.0807 43.4518 46.9907 43.2319 46.856C35.8389 42.338 26.5349 41.318 15.5769 43.821C15.3258 43.8787 15.0658 43.8864 14.8118 43.8435C14.5577 43.8007 14.3146 43.7081 14.0963 43.5712C13.8781 43.4343 13.6889 43.2557 13.5398 43.0457C13.3906 42.8356 13.2843 42.5982 13.2269 42.347C13.1692 42.0958 13.1617 41.8356 13.2047 41.5815C13.2476 41.3273 13.3403 41.0841 13.4774 40.8658C13.6145 40.6475 13.7934 40.4584 14.0036 40.3093C14.2139 40.1603 14.4516 40.0541 14.7029 39.997C26.6949 37.257 36.9809 38.437 45.2789 43.507C45.7226 43.7789 46.0402 44.2157 46.1621 44.7215C46.2839 45.2274 46.2001 45.7609 45.9289 46.205L45.9299 46.204ZM49.7819 37.632C49.4413 38.1865 48.8945 38.583 48.2617 38.7346C47.6288 38.8861 46.9617 38.7801 46.4069 38.44C37.9469 33.24 25.0469 31.733 15.0369 34.772C14.414 34.96 13.7418 34.8935 13.1678 34.5871C12.5937 34.2807 12.1644 33.7592 11.9739 33.137C11.5839 31.837 12.3139 30.47 13.6109 30.077C25.0459 26.607 39.2589 28.287 48.9759 34.257C49.5303 34.5978 49.9266 35.1447 50.0779 35.7775C50.2292 36.4103 50.1221 37.0774 49.7819 37.632ZM50.1139 28.706C39.9659 22.68 23.2279 22.126 13.5409 25.066C12.7936 25.2925 11.9868 25.2128 11.2982 24.8445C10.6095 24.4762 10.0954 23.8494 9.86894 23.102C9.64245 22.3546 9.72212 21.5479 10.0904 20.8592C10.4588 20.1706 11.0856 19.6565 11.8329 19.43C22.9529 16.055 41.4389 16.707 53.1209 23.64C53.4536 23.8373 53.7441 24.0981 53.9759 24.4077C54.2077 24.7172 54.3762 25.0694 54.4719 25.4441C54.5675 25.8188 54.5884 26.2087 54.5334 26.5915C54.4783 26.9743 54.3483 27.3425 54.1509 27.675C53.9538 28.0079 53.6929 28.2986 53.3833 28.5306C53.0737 28.7625 52.7214 28.9312 52.3465 29.0268C51.9716 29.1225 51.5816 29.1433 51.1987 29.0881C50.8158 29.0329 50.4475 28.9027 50.1149 28.705L50.1139 28.706Z" fill="black"/>
</svg>
