<svg width="139" height="26" viewBox="0 0 139 26" fill="none" xmlns="http://www.w3.org/2000/svg">
<g clip-path="url(#clip0_202_65)">
<path d="M38.0762 9.57109H40.5762V7.17109C40.5762 4.27109 42.1762 2.37109 45.3762 2.37109L46.9762 2.67109V5.57109L45.2762 5.27109C44.2762 5.27109 43.8762 5.87109 43.8762 6.87109V9.57109H47.0762V12.4711H43.7762V24.5711H40.5762V12.3711H38.0762V9.57109Z" fill="#D60365"/>
<path d="M55.176 9.271C59.276 9.271 62.976 12.471 62.976 17.071C62.976 21.671 59.376 24.871 55.176 24.871C50.976 24.871 47.376 21.671 47.376 17.071C47.476 12.371 51.076 9.271 55.176 9.271ZM55.176 21.971C58.176 21.971 59.776 19.771 59.776 17.071C59.776 14.371 58.176 12.171 55.176 12.171C52.176 12.171 50.576 14.371 50.576 17.071C50.576 19.671 52.176 21.971 55.176 21.971Z" fill="#D60365"/>
<path d="M72.176 9.271C76.276 9.271 79.976 12.471 79.976 17.071C79.976 21.671 76.376 24.871 72.176 24.871C67.976 24.871 64.376 21.671 64.376 17.071C64.376 12.371 68.076 9.271 72.176 9.271ZM72.176 21.971C75.176 21.971 76.776 19.771 76.776 17.071C76.776 14.371 75.176 12.171 72.176 12.171C69.176 12.171 67.576 14.371 67.576 17.071C67.576 19.671 69.176 21.971 72.176 21.971Z" fill="#D60365"/>
<path d="M96.5764 24.4712H93.6764L93.3764 23.1712L93.1764 22.9712L92.9764 23.1712C91.9764 24.1712 90.4764 24.7712 88.8764 24.7712C84.7764 24.7712 81.2764 21.5712 81.2764 16.9712C81.2764 12.3712 84.7764 9.17119 88.8764 9.17119C90.4764 9.17119 92.0764 9.77119 92.9764 10.7712L93.1764 10.9712L93.3764 10.7712V2.47119H96.5764V24.4712ZM89.0764 12.0712C86.0764 12.0712 84.4764 14.2712 84.4764 16.9712C84.4764 19.6712 86.0764 21.8712 89.0764 21.8712C91.7764 21.8712 93.6764 19.6712 93.6764 16.9712C93.6764 14.2712 91.7764 12.0712 89.0764 12.0712Z" fill="#D60365"/>
<path d="M106.376 9.271C110.476 9.271 114.176 12.471 114.176 17.071C114.176 21.671 110.576 24.871 106.376 24.871C102.276 24.871 98.5762 21.671 98.5762 17.071C98.5762 12.371 102.276 9.271 106.376 9.271ZM106.376 21.971C109.376 21.971 110.976 19.771 110.976 17.071C110.976 14.371 109.376 12.171 106.376 12.171C103.376 12.171 101.776 14.371 101.776 17.071C101.776 19.671 103.376 21.971 106.376 21.971Z" fill="#D60365"/>
<path d="M116.176 9.571H119.076L119.376 11.171L119.576 11.371L119.776 11.171C120.776 9.871 121.976 9.271 123.276 9.271C123.876 9.271 124.276 9.271 124.876 9.571V12.471H122.976C121.076 12.471 119.576 13.971 119.476 15.871V24.571H116.276V9.571H116.176Z" fill="#D60365"/>
<path d="M132.676 15.1713H135.276V14.4713C135.276 12.6713 134.076 11.8713 132.376 11.8713C130.976 11.8713 130.076 12.5713 129.576 13.8713L126.776 13.2713C127.376 10.7713 129.576 9.07129 132.476 9.07129C136.476 9.07129 138.476 11.0713 138.476 14.9713V24.2713H135.776L135.476 22.2713C134.476 23.7713 132.876 24.4713 130.776 24.4713C128.076 24.4713 126.176 22.8713 126.176 19.8713C126.176 17.0713 128.776 15.1713 132.676 15.1713ZM131.376 21.9713C132.376 21.9713 133.376 21.6713 134.076 20.9713C134.876 20.2713 135.276 19.3713 135.276 18.1713V17.8713H132.576C130.676 17.8713 129.476 18.7713 129.476 20.1713C129.476 21.1713 130.176 21.9713 131.376 21.9713Z" fill="#D60365"/>
<path d="M18.5766 24.0713C19.6766 23.6713 27.6766 20.4713 29.2766 19.8713C29.4766 19.7713 29.4766 19.5713 29.3766 19.4713C29.1766 19.2713 28.8766 19.0713 28.2766 19.0713C27.4766 19.0713 20.5766 21.2713 20.5766 21.2713C20.5766 21.2713 17.3766 21.7713 16.9766 21.7713C16.5766 21.6713 16.4766 21.4713 16.4766 21.1713C16.4766 20.8713 16.6766 20.5713 17.2766 20.5713C17.8766 20.4713 21.3766 20.2713 21.9766 19.9713C22.5766 19.5713 22.4766 18.9713 22.1766 18.8713C21.6766 18.6713 11.7766 18.6713 6.87656 18.7713C6.17656 18.7713 4.67656 18.7713 2.47656 18.7713C2.87656 21.1713 3.57656 23.2713 5.07656 25.1713C6.47656 24.4713 8.07656 23.9713 9.87656 24.0713C11.1766 23.9713 17.2766 24.4713 18.5766 24.0713Z" fill="#D60365"/>
<path d="M30.5762 15.4713H29.2762C28.9762 8.47129 23.3762 2.77129 16.3762 2.47129V1.17129C16.3762 0.871289 16.1762 0.571289 15.7762 0.571289C15.4762 0.571289 15.1762 0.771289 15.1762 1.17129V2.47129C8.17617 2.77129 2.47617 8.37129 2.27617 15.4713H1.17617C0.876172 15.4713 0.576172 15.6713 0.576172 16.0713C0.576172 16.3713 0.776172 16.6713 1.17617 16.6713H30.5762C30.8762 16.6713 31.1762 16.4713 31.1762 16.0713C31.1762 15.6713 30.9762 15.4713 30.5762 15.4713ZM10.1762 5.27129C9.27617 6.37129 7.27617 9.37129 7.07617 13.5713C7.07617 13.9713 6.77617 14.2713 6.47617 14.2713H5.17617C4.77617 14.2713 4.47617 13.7713 4.57617 13.2713C4.97617 11.5713 6.27617 7.87129 10.0762 5.17129C10.1762 5.07129 10.2762 5.17129 10.1762 5.27129Z" fill="#D60365"/>
</g>
<defs>
<clipPath id="clip0_202_65">
<rect width="137.9" height="24.6" fill="white" transform="translate(0.576172 0.571289)"/>
</clipPath>
</defs>
</svg>
