<svg width="125" height="41" viewBox="0 0 125 41" fill="none" xmlns="http://www.w3.org/2000/svg">
<g clip-path="url(#clip0_202_39)">
<path d="M18.3851 7.82809H6.9801C5.9491 7.79109 4.9181 7.90009 3.9171 8.15009C2.3831 8.60909 1.1341 9.73009 0.5111 11.2051C0.1251 12.3621 -0.0449002 13.5791 0.0100998 14.7971V26.2021C-0.0449002 27.4201 0.1251 28.6381 0.5111 29.7941C1.1331 31.2691 2.3821 32.3901 3.9161 32.8491C4.9171 33.0991 5.9481 33.2081 6.9791 33.1721H18.3841C19.4151 33.2081 20.4461 33.1001 21.4471 32.8491C22.9811 32.3901 24.2301 31.2701 24.8521 29.7941C25.2381 28.6371 25.4081 27.4201 25.3531 26.2021V14.7971C25.4081 13.5791 25.2381 12.3611 24.8521 11.2051C24.2301 9.73009 22.9811 8.60909 21.4471 8.15009C20.4471 7.90009 19.4161 7.79109 18.3851 7.82809Z" fill="black"/>
<path d="M18.3853 8.18317C19.3823 8.14517 20.3793 8.24917 21.3473 8.49117C21.9543 8.67017 22.5203 8.96517 23.0163 9.35917C23.6763 9.88117 24.1953 10.5602 24.5233 11.3352C24.8913 12.4502 25.0533 13.6242 25.0003 14.7972V26.2022C25.0533 27.3752 24.8923 28.5492 24.5233 29.6642C24.1953 30.4392 23.6763 31.1182 23.0163 31.6402C22.5213 32.0342 21.9543 32.3292 21.3473 32.5082C20.3793 32.7502 19.3823 32.8542 18.3853 32.8162H6.98032C5.98332 32.8542 4.98632 32.7502 4.01832 32.5082C3.41132 32.3292 2.84532 32.0342 2.34932 31.6402C1.68932 31.1182 1.17032 30.4392 0.842325 29.6642C0.474325 28.5492 0.312325 27.3752 0.365325 26.2022V14.7972C0.312325 13.6242 0.473325 12.4502 0.842325 11.3352C1.17032 10.5602 1.68932 9.88117 2.34932 9.35917C2.84432 8.96517 3.41132 8.67017 4.01832 8.49117C4.98632 8.24917 5.98332 8.14517 6.98032 8.18317H18.3853Z" fill="white"/>
<path d="M18.5763 12.4191C18.5683 11.9571 18.3093 11.6391 17.8573 11.7151C17.8573 11.7151 10.5273 13.1511 9.67332 13.3291C9.11932 13.4451 8.93432 13.7921 8.94632 14.3741C8.94432 14.4231 8.94632 23.8731 8.94632 23.8731C8.94632 24.8251 8.13932 24.5991 7.06732 24.8691C5.24632 25.3271 5.19432 26.1321 5.07532 26.3861C4.88932 27.4011 5.12632 28.5241 6.50232 28.8541C7.06732 28.9891 7.42032 28.9271 7.98132 28.8191C8.88832 28.6451 9.34732 28.2001 9.74532 27.3681C9.93232 26.9771 9.95032 26.3231 9.95032 25.8941C9.94932 23.1921 9.94932 20.6231 9.94932 17.9211C9.94932 17.4701 10.0743 17.3281 10.5183 17.2391C12.6893 16.8091 14.8723 16.3551 17.0423 15.9281C17.5303 15.8311 17.5833 16.0931 17.5833 16.5871C17.5843 18.6101 17.5753 21.9191 17.5753 22.2381C17.5753 23.3781 15.4403 22.6761 14.0723 23.9401C13.5923 24.4101 13.5083 25.2941 13.6583 25.7771C13.8893 26.5131 14.3663 26.9681 15.0943 27.1251C15.5593 27.2261 17.0903 27.3941 17.9943 26.2931C18.6053 25.5481 18.5613 25.0961 18.5613 24.4161L18.5763 12.4191Z" fill="url(#paint0_linear_202_39)"/>
<path d="M38.4521 22.4731H33.6811L32.5361 25.8561H30.5151L35.0351 13.3391H37.1341L41.6541 25.8561H39.5981L38.4521 22.4731ZM34.1751 20.9121H37.9571L36.0921 15.4211H36.0401L34.1751 20.9121Z" fill="black"/>
<path d="M51.4031 21.2943C51.4031 24.1313 49.8851 25.9533 47.5951 25.9533C46.4111 26.0153 45.2961 25.3953 44.7241 24.3573H44.6811V28.8763H42.8071V16.7313H44.6201V18.2503H44.6551C45.2521 17.2173 46.3691 16.5973 47.5611 16.6363C49.8771 16.6363 51.4031 18.4663 51.4031 21.2943ZM49.4781 21.2943C49.4781 19.4473 48.5241 18.2323 47.0661 18.2323C45.6351 18.2323 44.6721 19.4723 44.6721 21.2943C44.6721 23.1333 45.6351 24.3653 47.0661 24.3653C48.5231 24.3653 49.4781 23.1593 49.4781 21.2943Z" fill="black"/>
<path d="M61.4402 21.2943C61.4402 24.1313 59.9222 25.9533 57.6322 25.9533C56.4482 26.0153 55.3332 25.3953 54.7612 24.3573H54.7182V28.8763H52.8442V16.7313H54.6572V18.2503H54.6922C55.2892 17.2173 56.4062 16.5973 57.5982 16.6363C59.9132 16.6363 61.4402 18.4663 61.4402 21.2943ZM59.5142 21.2943C59.5142 19.4473 58.5602 18.2323 57.1022 18.2323C55.6712 18.2323 54.7082 19.4723 54.7082 21.2943C54.7082 23.1333 55.6712 24.3653 57.1022 24.3653C58.5602 24.3653 59.5142 23.1593 59.5142 21.2943Z" fill="black"/>
<path d="M62.9502 13.3391H64.8232V25.8571H62.9502V13.3391Z" fill="black"/>
<path d="M74.5743 23.1771C74.1483 24.9611 72.4693 26.1541 70.6443 25.9701C67.9903 25.9701 66.3413 24.1911 66.3413 21.3381C66.3413 18.4751 67.9983 16.6191 70.5663 16.6191C73.0903 16.6191 74.6783 18.3541 74.6783 21.1211V21.7631H68.2333V21.8761C68.1733 22.5551 68.4073 23.2281 68.8773 23.7231C69.3473 24.2181 70.0063 24.4871 70.6883 24.4611C71.5973 24.5461 72.4543 24.0241 72.7963 23.1771H74.5743ZM68.2413 20.4531H72.8043C72.8383 19.8421 72.6163 19.2451 72.1913 18.8061C71.7663 18.3661 71.1773 18.1241 70.5663 18.1371C69.9503 18.1331 69.3573 18.3761 68.9213 18.8111C68.4843 19.2451 68.2403 19.8361 68.2413 20.4531Z" fill="black"/>
<path d="M90.8391 25.8571V16.6441H90.7781L87.0042 25.7621H85.5641L81.7822 16.6441H81.7221V25.8571H79.9521V13.3391H82.1982L86.2501 23.2191H86.3201L90.3621 13.3391H92.6181V25.8571H90.8391Z" fill="black"/>
<path d="M102.595 25.8572H100.8V24.2872H100.756C100.262 25.3872 99.1299 26.0572 97.9279 25.9612C97.0329 26.0132 96.1609 25.6682 95.5439 25.0172C94.9269 24.3662 94.6279 23.4772 94.7279 22.5872V16.7312H96.6019V22.2232C96.6019 23.6112 97.2609 24.3482 98.5529 24.3482C99.1679 24.3682 99.7619 24.1192 100.179 23.6662C100.596 23.2132 100.794 22.6002 100.722 21.9892V16.7322H102.596L102.595 25.8572Z" fill="black"/>
<path d="M107.923 16.6272C109.944 16.6272 111.393 17.7472 111.436 19.3602H109.676C109.597 18.5532 108.913 18.0592 107.872 18.0592C106.856 18.0592 106.18 18.5272 106.18 19.2392C106.18 19.7852 106.631 20.1492 107.577 20.3842L109.112 20.7392C110.951 21.1822 111.645 21.8592 111.645 23.1952C111.645 24.8432 110.084 25.9712 107.855 25.9712C105.704 25.9712 104.254 24.8692 104.116 23.2032H105.972C106.103 24.0802 106.805 24.5482 107.942 24.5482C109.06 24.5482 109.764 24.0882 109.764 23.3592C109.764 22.7962 109.417 22.4922 108.463 22.2492L106.832 21.8502C105.184 21.4512 104.351 20.6102 104.351 19.3442C104.349 17.7292 105.797 16.6272 107.923 16.6272Z" fill="black"/>
<path d="M113.104 14.3282C113.095 13.8852 113.355 13.4812 113.762 13.3062C114.169 13.1312 114.641 13.2192 114.956 13.5302C115.272 13.8412 115.368 14.3112 115.199 14.7212C115.03 15.1302 114.63 15.3972 114.188 15.3952C113.594 15.3992 113.11 14.9222 113.104 14.3282ZM113.251 16.7312H115.125V25.8572H113.251V16.7312Z" fill="black"/>
<path d="M123.196 19.8712C123.026 18.8362 122.09 18.1042 121.045 18.1882C119.605 18.1882 118.651 19.3942 118.651 21.2942C118.651 23.2372 119.613 24.4092 121.063 24.4092C122.096 24.5122 123.031 23.7932 123.197 22.7692H125C124.767 24.7322 123.012 26.1512 121.044 25.9712C118.442 25.9712 116.741 24.1922 116.741 21.2952C116.741 18.4592 118.441 16.6202 121.026 16.6202C123.008 16.4522 124.763 17.8952 124.982 19.8722L123.196 19.8712Z" fill="black"/>
</g>
<defs>
<linearGradient id="paint0_linear_202_39" x1="16.7584" y1="27.2446" x2="8.04282" y2="14.3232" gradientUnits="userSpaceOnUse">
<stop stop-color="#22C9FD"/>
<stop offset="0.0493" stop-color="#2ABEFD"/>
<stop offset="0.3892" stop-color="#6B6BFF"/>
<stop offset="0.5271" stop-color="#756AF3"/>
<stop offset="0.5591" stop-color="#8D68D6"/>
<stop offset="0.6057" stop-color="#AC65B2"/>
<stop offset="0.6305" stop-color="#B864A4"/>
<stop offset="0.7326" stop-color="#D56182"/>
<stop offset="0.8377" stop-color="#EC5F67"/>
<stop offset="0.9304" stop-color="#FA5D56"/>
<stop offset="1" stop-color="#FF5D50"/>
</linearGradient>
<clipPath id="clip0_202_39">
<rect width="125" height="40" fill="white" transform="translate(0 0.5)"/>
</clipPath>
</defs>
</svg>
