<svg id="visual" viewBox="0 0 900 300" width="900" height="300" xmlns="http://www.w3.org/2000/svg" xmlns:xlink="http://www.w3.org/1999/xlink" version="1.1"><rect x="0" y="0" width="900" height="300" fill="#121212"></rect><defs><linearGradient id="grad1_0" x1="66.7%" y1="100%" x2="100%" y2="0%"><stop offset="-10%" stop-color="#e08a00" stop-opacity="1"></stop><stop offset="110%" stop-color="#e08a00" stop-opacity="1"></stop></linearGradient></defs><defs><linearGradient id="grad1_1" x1="66.7%" y1="100%" x2="100%" y2="0%"><stop offset="-10%" stop-color="#e08a00" stop-opacity="1"></stop><stop offset="110%" stop-color="#734a18" stop-opacity="1"></stop></linearGradient></defs><defs><linearGradient id="grad1_2" x1="66.7%" y1="100%" x2="100%" y2="0%"><stop offset="-10%" stop-color="#121212" stop-opacity="1"></stop><stop offset="110%" stop-color="#734a18" stop-opacity="1"></stop></linearGradient></defs><defs><linearGradient id="grad2_0" x1="0%" y1="100%" x2="33.3%" y2="0%"><stop offset="-10%" stop-color="#e08a00" stop-opacity="1"></stop><stop offset="110%" stop-color="#e08a00" stop-opacity="1"></stop></linearGradient></defs><defs><linearGradient id="grad2_1" x1="0%" y1="100%" x2="33.3%" y2="0%"><stop offset="-10%" stop-color="#734a18" stop-opacity="1"></stop><stop offset="110%" stop-color="#e08a00" stop-opacity="1"></stop></linearGradient></defs><defs><linearGradient id="grad2_2" x1="0%" y1="100%" x2="33.3%" y2="0%"><stop offset="-10%" stop-color="#734a18" stop-opacity="1"></stop><stop offset="110%" stop-color="#121212" stop-opacity="1"></stop></linearGradient></defs><g transform="translate(900, 300)"><path d="M-165 0C-160.5 -14.3 -156 -28.6 -147.8 -39.6C-139.5 -50.6 -127.5 -58.2 -121.2 -70C-114.9 -81.8 -114.3 -97.6 -106.8 -106.8C-99.2 -115.9 -84.7 -118.3 -73.5 -127.3C-62.3 -136.3 -54.4 -152 -42.7 -159.4C-31 -166.8 -15.5 -165.9 0 -165L0 0Z" fill="#412d17"></path><path d="M-110 0C-107 -9.5 -104 -19.1 -98.5 -26.4C-93 -33.7 -85 -38.8 -80.8 -46.7C-76.6 -54.5 -76.2 -65.1 -71.2 -71.2C-66.1 -77.3 -56.5 -78.9 -49 -84.9C-41.5 -90.9 -36.3 -101.3 -28.5 -106.3C-20.7 -111.2 -10.3 -110.6 0 -110L0 0Z" fill="#a86914"></path><path d="M-55 0C-53.5 -4.8 -52 -9.5 -49.3 -13.2C-46.5 -16.9 -42.5 -19.4 -40.4 -23.3C-38.3 -27.3 -38.1 -32.5 -35.6 -35.6C-33.1 -38.6 -28.2 -39.4 -24.5 -42.4C-20.8 -45.4 -18.1 -50.7 -14.2 -53.1C-10.3 -55.6 -5.2 -55.3 0 -55L0 0Z" fill="#e08a00"></path></g><g transform="translate(0, 0)"><path d="M165 0C153.4 11.7 141.7 23.4 138.1 37C134.5 50.6 139 66 135.1 78C131.2 90 118.8 98.6 108.9 108.9C99 119.2 91.6 131.2 81 140.3C70.4 149.4 56.7 155.7 42.7 159.4C28.7 163 14.3 164 0 165L0 0Z" fill="#412d17"></path><path d="M110 0C102.2 7.8 94.5 15.6 92.1 24.7C89.7 33.7 92.7 44 90.1 52C87.4 60 79.2 65.7 72.6 72.6C66 79.5 61 87.4 54 93.5C47 99.6 37.8 103.8 28.5 106.3C19.1 108.7 9.6 109.3 0 110L0 0Z" fill="#a86914"></path><path d="M55 0C51.1 3.9 47.2 7.8 46 12.3C44.8 16.9 46.3 22 45 26C43.7 30 39.6 32.9 36.3 36.3C33 39.7 30.5 43.7 27 46.8C23.5 49.8 18.9 51.9 14.2 53.1C9.6 54.3 4.8 54.7 0 55L0 0Z" fill="#e08a00"></path></g></svg>