<svg id="visual" viewBox="0 0 960 540" width="960" height="540" xmlns="http://www.w3.org/2000/svg" xmlns:xlink="http://www.w3.org/1999/xlink" version="1.1"><rect x="0" y="0" width="960" height="540" fill="#e0dacd"></rect><path d="M0 350L137 395L274 399L411 350L549 390L686 389L823 326L960 334L960 541L823 541L686 541L549 541L411 541L274 541L137 541L0 541Z" fill="#ffa91f"></path><path d="M0 379L137 384L274 403L411 364L549 424L686 403L823 366L960 418L960 541L823 541L686 541L549 541L411 541L274 541L137 541L0 541Z" fill="#be7f23"></path><path d="M0 439L137 439L274 448L411 434L549 416L686 404L823 399L960 409L960 541L823 541L686 541L549 541L411 541L274 541L137 541L0 541Z" fill="#805821"></path><path d="M0 463L137 479L274 470L411 448L549 483L686 451L823 447L960 451L960 541L823 541L686 541L549 541L411 541L274 541L137 541L0 541Z" fill="#47331b"></path><path d="M0 485L137 503L274 515L411 508L549 503L686 500L823 504L960 484L960 541L823 541L686 541L549 541L411 541L274 541L137 541L0 541Z" fill="#121212"></path></svg>